<?xml version="1.0" encoding="UTF-8"?>
<!DOCTYPE svg PUBLIC "-//W3C//DTD SVG 1.1//EN" "http://www.w3.org/Graphics/SVG/1.1/DTD/svg11.dtd">
<!-- Creator: CorelDRAW 2020 (64-Bit) -->
<svg xmlns="http://www.w3.org/2000/svg" xml:space="preserve" width="55px" height="8px" version="1.1" style="shape-rendering:geometricPrecision; text-rendering:geometricPrecision; image-rendering:optimizeQuality; fill-rule:evenodd; clip-rule:evenodd"
viewBox="0 0 19.19 2.83"
 xmlns:xlink="http://www.w3.org/1999/xlink"
 xmlns:xodm="http://www.corel.com/coreldraw/odm/2003">
 <defs>
  <style type="text/css">
   <![CDATA[
    .fil0 {fill:#393185;fill-rule:nonzero}
   ]]>
  </style>
 </defs>
 <g id="Layer_x0020_1">
  <metadata id="CorelCorpID_0Corel-Layer"/>
  <path class="fil0" d="M0.05 2.09c-0.02,-0.22 -0.03,-0.39 -0.05,-0.52 0.11,0.05 0.22,0.08 0.31,0.1 0.09,0.02 0.16,0.03 0.23,0.03 0.09,0 0.16,-0.01 0.21,-0.04 0.06,-0.02 0.08,-0.06 0.08,-0.11 0,-0.02 0,-0.04 -0.01,-0.05 0,-0.02 -0.01,-0.03 -0.02,-0.05 -0.02,-0.02 -0.04,-0.05 -0.07,-0.07l-0.28 -0.25c-0.07,-0.06 -0.12,-0.1 -0.15,-0.12 -0.05,-0.05 -0.09,-0.1 -0.12,-0.15 -0.03,-0.04 -0.05,-0.09 -0.07,-0.13 -0.01,-0.05 -0.02,-0.1 -0.02,-0.15 0,-0.06 0.01,-0.12 0.03,-0.18 0.02,-0.06 0.06,-0.12 0.1,-0.17 0.05,-0.05 0.1,-0.09 0.18,-0.13 0.07,-0.04 0.15,-0.07 0.23,-0.08 0.08,-0.01 0.17,-0.02 0.25,-0.02 0.17,0 0.36,0.02 0.56,0.06 0.01,0.07 0.01,0.13 0.01,0.19 0.01,0.06 0.02,0.16 0.03,0.31 -0.09,-0.04 -0.18,-0.07 -0.25,-0.08 -0.08,-0.01 -0.15,-0.02 -0.2,-0.02 -0.08,0 -0.15,0.01 -0.2,0.04 -0.06,0.03 -0.08,0.07 -0.08,0.11 0,0.02 0,0.04 0.01,0.06 0.01,0.02 0.02,0.04 0.05,0.07 0.02,0.02 0.05,0.05 0.09,0.08 0.03,0.04 0.09,0.08 0.17,0.14l0.11 0.09c0.03,0.03 0.07,0.06 0.11,0.09 0.03,0.04 0.07,0.08 0.09,0.12 0.03,0.03 0.05,0.07 0.07,0.1 0.01,0.03 0.02,0.06 0.03,0.09 0.01,0.03 0.01,0.06 0.01,0.1 0,0.09 -0.02,0.18 -0.07,0.26 -0.04,0.08 -0.1,0.15 -0.18,0.2 -0.08,0.06 -0.17,0.09 -0.27,0.12 -0.09,0.02 -0.19,0.03 -0.3,0.03 -0.16,0 -0.37,-0.03 -0.62,-0.07z"/>
  <path id="1" class="fil0" d="M1.72 2.83c0.02,-0.21 0.04,-0.42 0.05,-0.62 0.02,-0.36 0.04,-0.65 0.05,-0.89 0.01,-0.24 0.01,-0.48 0.01,-0.72 0.21,-0.03 0.37,-0.05 0.49,-0.06 0.11,-0.01 0.23,-0.02 0.35,-0.02 0.14,0 0.28,0.02 0.4,0.05 0.12,0.03 0.22,0.08 0.3,0.16 0.07,0.08 0.13,0.17 0.17,0.28 0.04,0.1 0.05,0.21 0.05,0.33 0,0.11 -0.01,0.21 -0.04,0.31 -0.03,0.1 -0.08,0.19 -0.14,0.27 -0.07,0.08 -0.14,0.14 -0.22,0.18 -0.08,0.04 -0.17,0.06 -0.27,0.06 -0.05,0 -0.11,-0.01 -0.16,-0.02 -0.05,-0.01 -0.1,-0.02 -0.15,-0.04 -0.05,-0.02 -0.09,-0.04 -0.12,-0.05 -0.03,-0.02 -0.07,-0.05 -0.12,-0.09l-0.02 0.43c-0.01,0.19 -0.01,0.34 -0.01,0.44 -0.12,0 -0.22,0 -0.3,0 -0.07,0 -0.18,0 -0.32,0zm0.7 -1.83c0,0.04 -0.01,0.08 -0.01,0.11 -0.01,0.02 -0.01,0.06 -0.01,0.11 0,0.05 -0.01,0.09 -0.01,0.12 0,0.08 0.02,0.15 0.04,0.21 0.03,0.05 0.07,0.09 0.11,0.13 0.05,0.03 0.1,0.04 0.15,0.04 0.06,0 0.11,-0.01 0.15,-0.05 0.05,-0.03 0.09,-0.08 0.12,-0.14 0.02,-0.06 0.04,-0.13 0.04,-0.21 0,-0.11 -0.03,-0.2 -0.09,-0.26 -0.06,-0.07 -0.14,-0.1 -0.25,-0.1 -0.07,0 -0.15,0.01 -0.24,0.04z"/>
  <path id="2" class="fil0" d="M5.33 1.66c-0.02,0.06 -0.04,0.21 -0.08,0.44 -0.12,0.02 -0.22,0.04 -0.3,0.05 -0.08,0 -0.16,0.01 -0.24,0.01 -0.12,0 -0.23,-0.01 -0.33,-0.03 -0.11,-0.01 -0.19,-0.04 -0.27,-0.09 -0.07,-0.04 -0.13,-0.09 -0.18,-0.16 -0.05,-0.06 -0.09,-0.13 -0.12,-0.22 -0.02,-0.09 -0.04,-0.18 -0.04,-0.27 0,-0.13 0.03,-0.26 0.08,-0.38 0.05,-0.13 0.12,-0.22 0.2,-0.29 0.08,-0.07 0.18,-0.12 0.28,-0.15 0.11,-0.03 0.22,-0.05 0.33,-0.05 0.12,0 0.23,0.02 0.33,0.04 0.11,0.03 0.2,0.08 0.27,0.14 0.07,0.07 0.13,0.15 0.16,0.23 0.03,0.09 0.04,0.18 0.04,0.27 0,0.06 0,0.13 -0.02,0.2l-1.07 0c0,0.01 0,0.03 0,0.04 0,0.11 0.04,0.19 0.12,0.24 0.08,0.06 0.17,0.08 0.29,0.08 0.06,0 0.14,-0.01 0.23,-0.02 0.08,-0.02 0.19,-0.04 0.32,-0.08zm-0.94 -0.49l0.5 0c0,-0.02 0,-0.04 0,-0.05 0,-0.05 -0.01,-0.1 -0.03,-0.13 -0.02,-0.04 -0.04,-0.07 -0.08,-0.08 -0.03,-0.02 -0.07,-0.03 -0.12,-0.03 -0.03,0 -0.06,0 -0.08,0.01 -0.03,0.01 -0.06,0.03 -0.08,0.05 -0.02,0.02 -0.04,0.04 -0.06,0.06 -0.01,0.02 -0.03,0.05 -0.03,0.07 -0.01,0.02 -0.02,0.06 -0.02,0.1z"/>
  <path id="3" class="fil0" d="M5.81 1c0.02,-0.1 0.03,-0.16 0.03,-0.2 0.01,-0.04 0.02,-0.1 0.03,-0.18 0.29,-0.06 0.54,-0.1 0.75,-0.1 0.12,0 0.23,0.02 0.33,0.04 0.1,0.03 0.17,0.07 0.23,0.13 0.06,0.06 0.08,0.15 0.08,0.26 0,0.06 0,0.19 -0.02,0.38 -0.01,0.2 -0.03,0.46 -0.03,0.79 -0.1,-0.01 -0.2,-0.01 -0.3,-0.01 -0.1,0 -0.2,0 -0.31,0.01 0.02,-0.11 0.03,-0.35 0.05,-0.7 -0.04,0.02 -0.07,0.04 -0.09,0.04 -0.02,0.01 -0.06,0.03 -0.11,0.04 -0.06,0.02 -0.1,0.03 -0.13,0.04 -0.03,0.02 -0.06,0.03 -0.08,0.05 -0.03,0.01 -0.04,0.03 -0.05,0.05 -0.01,0.02 -0.02,0.04 -0.02,0.06 0,0.04 0.02,0.07 0.05,0.09 0.02,0.03 0.07,0.04 0.13,0.04 0.02,0 0.04,0 0.07,-0.01 0.02,0 0.05,-0.01 0.1,-0.02 -0.03,0.08 -0.07,0.19 -0.11,0.34 -0.09,0.01 -0.17,0.02 -0.25,0.02 -0.12,0 -0.23,-0.02 -0.31,-0.05 -0.09,-0.04 -0.15,-0.1 -0.19,-0.17 -0.05,-0.08 -0.07,-0.16 -0.07,-0.24 0,-0.05 0.01,-0.09 0.02,-0.14 0.02,-0.05 0.05,-0.09 0.08,-0.13 0.04,-0.05 0.08,-0.09 0.13,-0.12 0.04,-0.03 0.11,-0.06 0.19,-0.08 0.08,-0.03 0.19,-0.06 0.31,-0.08 0.06,-0.01 0.1,-0.02 0.15,-0.03 0.04,-0.02 0.07,-0.03 0.09,-0.03 0.02,-0.01 0.04,-0.02 0.05,-0.03 0.01,-0.02 0.02,-0.03 0.02,-0.04 0.01,-0.01 0.01,-0.03 0.01,-0.04 0,-0.04 -0.02,-0.07 -0.05,-0.09 -0.03,-0.02 -0.08,-0.03 -0.14,-0.03 -0.17,0 -0.39,0.05 -0.64,0.14z"/>
  <path id="4" class="fil0" d="M7.54 2.12c0.02,-0.13 0.03,-0.24 0.03,-0.32 0.01,-0.11 0.02,-0.25 0.03,-0.42l0.02 -0.36c0,-0.16 0.01,-0.32 0.01,-0.47 0,-0.17 0.01,-0.35 0.01,-0.51 0.14,0 0.25,0 0.32,0 0.08,0 0.18,0 0.29,0 -0.02,0.26 -0.05,0.59 -0.07,0.99 -0.01,0.39 -0.02,0.76 -0.02,1.09 -0.12,-0.01 -0.22,-0.01 -0.3,-0.01 -0.1,0 -0.2,0 -0.32,0.01zm0.67 -0.88l0.27 -0.38 0.19 -0.3c0.14,0 0.25,0 0.32,0 0.1,0 0.22,0 0.36,0l-0.31 0.4c-0.07,0.09 -0.14,0.18 -0.21,0.29 0.07,0.13 0.24,0.42 0.51,0.87 -0.12,-0.01 -0.23,-0.01 -0.32,-0.01 -0.1,0 -0.21,0 -0.34,0.01l-0.09 -0.19c-0.04,-0.07 -0.07,-0.12 -0.09,-0.17 -0.01,-0.02 -0.08,-0.14 -0.21,-0.37l-0.08 -0.15z"/>
  <path id="5" class="fil0" d="M11.02 1.01c0.1,0.01 0.19,0.01 0.27,0.01 0.07,0 0.16,0 0.25,-0.01 0,0.06 0,0.11 0,0.16 -0.01,0.04 -0.02,0.09 -0.03,0.14 -0.01,0.05 -0.02,0.1 -0.04,0.15 -0.02,0.05 -0.03,0.09 -0.05,0.13 -0.01,0.03 -0.04,0.08 -0.06,0.12 0.06,0.09 0.12,0.16 0.18,0.22 0.06,0.07 0.11,0.13 0.16,0.19 -0.15,-0.01 -0.26,-0.01 -0.35,-0.01 -0.12,0 -0.23,0 -0.33,0.01l-0.12 -0.15c-0.05,0.03 -0.1,0.05 -0.13,0.07 -0.04,0.02 -0.08,0.04 -0.13,0.06 -0.05,0.02 -0.11,0.03 -0.17,0.04 -0.06,0.01 -0.12,0.02 -0.18,0.02 -0.15,0 -0.29,-0.03 -0.42,-0.08 -0.13,-0.05 -0.23,-0.13 -0.29,-0.24 -0.07,-0.11 -0.1,-0.22 -0.1,-0.34 0,-0.14 0.04,-0.27 0.12,-0.38 0.08,-0.11 0.22,-0.21 0.42,-0.31 -0.04,-0.07 -0.06,-0.12 -0.08,-0.17 -0.01,-0.05 -0.02,-0.1 -0.02,-0.14 0,-0.07 0.02,-0.14 0.05,-0.21 0.04,-0.07 0.09,-0.12 0.16,-0.17 0.06,-0.05 0.13,-0.08 0.21,-0.1 0.07,-0.01 0.15,-0.02 0.24,-0.02 0.17,0 0.34,0.02 0.51,0.06l0.01 0.4 0 0.07c-0.07,-0.03 -0.13,-0.05 -0.17,-0.06 -0.05,-0.01 -0.09,-0.02 -0.13,-0.02 -0.05,0 -0.1,0.01 -0.13,0.02 -0.04,0.02 -0.07,0.04 -0.09,0.07 -0.02,0.02 -0.03,0.05 -0.03,0.08 0,0.02 0,0.04 0.01,0.06 0.01,0.02 0.02,0.05 0.03,0.08 0.02,0.04 0.05,0.08 0.08,0.13 0.04,0.05 0.07,0.09 0.09,0.12 0.03,0.03 0.06,0.07 0.11,0.12l0.12 0.15c0.01,-0.03 0.01,-0.05 0.01,-0.06 0,-0.02 0.01,-0.04 0.01,-0.08 0,-0.04 0,-0.08 0.01,-0.13zm-0.41 0.6c-0.03,-0.05 -0.08,-0.11 -0.14,-0.17 -0.06,-0.07 -0.13,-0.15 -0.19,-0.23 -0.03,0.02 -0.06,0.04 -0.08,0.05 -0.02,0.01 -0.03,0.03 -0.05,0.04 -0.02,0.02 -0.03,0.04 -0.04,0.06 -0.01,0.02 -0.02,0.04 -0.03,0.06 -0.01,0.02 -0.01,0.04 -0.01,0.07 0,0.04 0.01,0.08 0.04,0.12 0.02,0.04 0.06,0.06 0.1,0.08 0.04,0.02 0.09,0.03 0.14,0.03 0.04,0 0.07,0 0.1,-0.01 0.03,-0.01 0.06,-0.02 0.08,-0.04 0.02,-0.01 0.05,-0.03 0.08,-0.06z"/>
  <path id="6" class="fil0" d="M11.89 2.09c-0.02,-0.22 -0.03,-0.39 -0.05,-0.52 0.11,0.05 0.22,0.08 0.31,0.1 0.08,0.02 0.16,0.03 0.23,0.03 0.09,0 0.16,-0.01 0.21,-0.04 0.06,-0.02 0.08,-0.06 0.08,-0.11 0,-0.02 0,-0.04 -0.01,-0.05 0,-0.02 -0.01,-0.03 -0.03,-0.05 -0.01,-0.02 -0.03,-0.05 -0.06,-0.07l-0.29 -0.25c-0.06,-0.06 -0.11,-0.1 -0.14,-0.12 -0.05,-0.05 -0.09,-0.1 -0.12,-0.15 -0.03,-0.04 -0.06,-0.09 -0.07,-0.13 -0.01,-0.05 -0.02,-0.1 -0.02,-0.15 0,-0.06 0.01,-0.12 0.03,-0.18 0.02,-0.06 0.06,-0.12 0.1,-0.17 0.04,-0.05 0.1,-0.09 0.18,-0.13 0.07,-0.04 0.14,-0.07 0.23,-0.08 0.08,-0.01 0.16,-0.02 0.25,-0.02 0.17,0 0.36,0.02 0.56,0.06 0.01,0.07 0.01,0.13 0.01,0.19 0.01,0.06 0.02,0.16 0.03,0.31 -0.09,-0.04 -0.18,-0.07 -0.25,-0.08 -0.08,-0.01 -0.15,-0.02 -0.2,-0.02 -0.08,0 -0.15,0.01 -0.2,0.04 -0.06,0.03 -0.08,0.07 -0.08,0.11 0,0.02 0,0.04 0.01,0.06 0.01,0.02 0.02,0.04 0.05,0.07 0.02,0.02 0.05,0.05 0.08,0.08 0.04,0.04 0.1,0.08 0.18,0.14l0.11 0.09c0.03,0.03 0.07,0.06 0.1,0.09 0.04,0.04 0.07,0.08 0.1,0.12 0.03,0.03 0.05,0.07 0.07,0.1 0.01,0.03 0.02,0.06 0.03,0.09 0.01,0.03 0.01,0.06 0.01,0.1 0,0.09 -0.02,0.18 -0.07,0.26 -0.04,0.08 -0.1,0.15 -0.18,0.2 -0.08,0.06 -0.17,0.09 -0.27,0.12 -0.09,0.02 -0.19,0.03 -0.3,0.03 -0.17,0 -0.37,-0.03 -0.62,-0.07z"/>
  <path id="7" class="fil0" d="M13.56 2.83c0.02,-0.21 0.04,-0.42 0.05,-0.62 0.02,-0.36 0.04,-0.65 0.05,-0.89 0.01,-0.24 0.01,-0.48 0.01,-0.72 0.21,-0.03 0.37,-0.05 0.49,-0.06 0.11,-0.01 0.23,-0.02 0.35,-0.02 0.14,0 0.28,0.02 0.4,0.05 0.12,0.03 0.22,0.08 0.3,0.16 0.07,0.08 0.13,0.17 0.17,0.28 0.03,0.1 0.05,0.21 0.05,0.33 0,0.11 -0.01,0.21 -0.04,0.31 -0.03,0.1 -0.08,0.19 -0.14,0.27 -0.07,0.08 -0.14,0.14 -0.22,0.18 -0.08,0.04 -0.17,0.06 -0.28,0.06 -0.05,0 -0.1,-0.01 -0.15,-0.02 -0.05,-0.01 -0.1,-0.02 -0.15,-0.04 -0.05,-0.02 -0.09,-0.04 -0.12,-0.05 -0.03,-0.02 -0.07,-0.05 -0.12,-0.09l-0.02 0.43c-0.01,0.19 -0.01,0.34 -0.01,0.44 -0.12,0 -0.22,0 -0.3,0 -0.07,0 -0.18,0 -0.32,0zm0.7 -1.83c0,0.04 -0.01,0.08 -0.01,0.11 -0.01,0.02 -0.01,0.06 -0.01,0.11 -0.01,0.05 -0.01,0.09 -0.01,0.12 0,0.08 0.02,0.15 0.04,0.21 0.03,0.05 0.06,0.09 0.11,0.13 0.05,0.03 0.1,0.04 0.15,0.04 0.06,0 0.11,-0.01 0.15,-0.05 0.05,-0.03 0.09,-0.08 0.12,-0.14 0.02,-0.06 0.04,-0.13 0.04,-0.21 0,-0.11 -0.03,-0.2 -0.09,-0.26 -0.06,-0.07 -0.14,-0.1 -0.25,-0.1 -0.07,0 -0.15,0.01 -0.24,0.04z"/>
  <path id="8" class="fil0" d="M17.17 1.66c-0.02,0.06 -0.04,0.21 -0.08,0.44 -0.12,0.02 -0.22,0.04 -0.3,0.05 -0.08,0 -0.16,0.01 -0.24,0.01 -0.12,0 -0.23,-0.01 -0.34,-0.03 -0.1,-0.01 -0.19,-0.04 -0.26,-0.09 -0.07,-0.04 -0.13,-0.09 -0.18,-0.16 -0.05,-0.06 -0.09,-0.13 -0.12,-0.22 -0.02,-0.09 -0.04,-0.18 -0.04,-0.27 0,-0.13 0.03,-0.26 0.08,-0.38 0.05,-0.13 0.12,-0.22 0.2,-0.29 0.08,-0.07 0.18,-0.12 0.28,-0.15 0.11,-0.03 0.22,-0.05 0.33,-0.05 0.12,0 0.23,0.02 0.33,0.04 0.11,0.03 0.2,0.08 0.27,0.14 0.07,0.07 0.13,0.15 0.16,0.23 0.03,0.09 0.04,0.18 0.04,0.27 0,0.06 0,0.13 -0.02,0.2l-1.07 0c0,0.01 0,0.03 0,0.04 0,0.11 0.04,0.19 0.12,0.24 0.08,0.06 0.17,0.08 0.29,0.08 0.06,0 0.14,-0.01 0.23,-0.02 0.08,-0.02 0.19,-0.04 0.32,-0.08zm-0.94 -0.49l0.5 0c0,-0.02 0,-0.04 0,-0.05 0,-0.05 -0.01,-0.1 -0.03,-0.13 -0.02,-0.04 -0.04,-0.07 -0.08,-0.08 -0.03,-0.02 -0.07,-0.03 -0.12,-0.03 -0.03,0 -0.06,0 -0.09,0.01 -0.02,0.01 -0.05,0.03 -0.07,0.05 -0.03,0.02 -0.04,0.04 -0.06,0.06 -0.01,0.02 -0.03,0.05 -0.03,0.07 -0.01,0.02 -0.02,0.06 -0.02,0.1z"/>
  <path id="9" class="fil0" d="M17.5 2.12l0.03 -0.33 0.05 -1.14 0.02 -0.61c0.14,0 0.25,0 0.32,0 0.09,0 0.19,0 0.31,0l-0.04 0.47 -0.05 1.15 -0.02 0.46c-0.11,0 -0.2,0 -0.29,0l-0.33 0z"/>
  <path id="10" class="fil0" d="M18.46 2.12l0.03 -0.33 0.06 -1.14 0.02 -0.61c0.14,0 0.24,0 0.31,0 0.1,0 0.2,0 0.31,0l-0.03 0.47 -0.06 1.15 -0.01 0.46c-0.11,0 -0.21,0 -0.3,0l-0.33 0z"/>
 </g>
</svg>
