<svg width="20" height="20" viewBox="0 0 20 20" fill="none" xmlns="http://www.w3.org/2000/svg">
<path d="M11.7943 1H12.7943C12.7943 0.447715 12.3466 0 11.7943 0V1ZM7.79427 1V0C7.24198 0 6.79427 0.447715 6.79427 1L7.79427 1ZM11.7943 3.28988H10.7943C10.7943 3.7323 11.085 4.12213 11.509 4.24833L11.7943 3.28988ZM14.6036 4.91373L13.9165 5.64022C14.2378 5.94416 14.7206 6.00091 15.1036 5.77976L14.6036 4.91373ZM16.5885 3.7678L17.4545 3.2678C17.1783 2.78951 16.5667 2.62564 16.0885 2.90178L16.5885 3.7678ZM18.5885 7.2319L19.0885 8.09793C19.3181 7.96532 19.4857 7.7469 19.5544 7.49072C19.623 7.23454 19.5871 6.96159 19.4545 6.7319L18.5885 7.2319ZM16.6051 8.37697L16.1051 7.51094C15.7224 7.73192 15.5301 8.17795 15.6322 8.60796L16.6051 8.37697ZM16.6052 11.6229L15.6322 11.3919C15.5301 11.8219 15.7224 12.2679 16.1052 12.4889L16.6052 11.6229ZM18.5885 12.7679L19.4545 13.2679C19.5871 13.0383 19.623 12.7653 19.5544 12.5091C19.4857 12.253 19.3181 12.0345 19.0885 11.9019L18.5885 12.7679ZM16.5885 16.2321L16.0885 17.0981C16.3181 17.2307 16.5911 17.2666 16.8473 17.198C17.1035 17.1293 17.3219 16.9617 17.4545 16.7321L16.5885 16.2321ZM14.6037 15.0862L15.1037 14.2201C14.7207 13.999 14.2379 14.0558 13.9166 14.3597L14.6037 15.0862ZM11.7943 16.7101L11.509 15.7517C11.085 15.8779 10.7943 16.2677 10.7943 16.7101H11.7943ZM11.7943 19V20C12.3466 20 12.7943 19.5523 12.7943 19H11.7943ZM7.79427 19H6.79427C6.79427 19.5523 7.24198 20 7.79427 20V19ZM7.79427 16.7101H8.79427C8.79427 16.2677 8.50356 15.8779 8.07952 15.7517L7.79427 16.7101ZM4.98467 15.0861L5.67188 14.3596C5.35056 14.0556 4.86772 13.9989 4.48467 14.22L4.98467 15.0861ZM3 16.2319L2.13397 16.7319C2.41012 17.2102 3.02171 17.3741 3.5 17.0979L3 16.2319ZM1 12.7678L0.5 11.9018C0.270316 12.0344 0.102717 12.2528 0.0340742 12.509C-0.0345689 12.7652 0.00136632 13.0381 0.133975 13.2678L1 12.7678ZM2.98332 11.6227L3.48332 12.4888C3.86606 12.2678 4.05835 11.8218 3.95629 11.3918L2.98332 11.6227ZM2.98335 8.37713L3.95631 8.6081C4.05839 8.1781 3.86609 7.73209 3.48335 7.51111L2.98335 8.37713ZM1.00001 7.23205L0.133982 6.73205C0.00137341 6.96173 -0.0345619 7.23469 0.0340812 7.49087C0.102724 7.74705 0.270323 7.96547 0.500007 8.09808L1.00001 7.23205ZM3.00001 3.76795L3.50001 2.90192C3.27032 2.76931 2.99737 2.73338 2.74119 2.80202C2.48501 2.87067 2.26659 3.03826 2.13398 3.26795L3.00001 3.76795ZM4.98477 4.91385L4.48477 5.77987C4.86781 6.00103 5.35064 5.94427 5.67196 5.64032L4.98477 4.91385ZM7.79427 3.28988L8.07952 4.24833C8.50356 4.12213 8.79427 3.7323 8.79427 3.28988H7.79427ZM11.7943 0H7.79427V2H11.7943V0ZM12.7943 3.28988V1H10.7943V3.28988H12.7943ZM15.2908 4.18724C14.3932 3.3382 13.2978 2.694 12.0795 2.33143L11.509 4.24833C12.4201 4.51948 13.2417 5.00196 13.9165 5.64022L15.2908 4.18724ZM16.0885 2.90178L14.1036 4.04771L15.1036 5.77976L17.0885 4.63383L16.0885 2.90178ZM19.4545 6.7319L17.4545 3.2678L15.7224 4.2678L17.7224 7.7319L19.4545 6.7319ZM17.1051 9.243L19.0885 8.09793L18.0885 6.36588L16.1051 7.51094L17.1051 9.243ZM17.7943 10C17.7943 9.36293 17.7196 8.74199 17.5781 8.14598L15.6322 8.60796C15.738 9.05372 15.7943 9.51964 15.7943 10H17.7943ZM17.5781 11.8539C17.7196 11.2579 17.7943 10.637 17.7943 10H15.7943C15.7943 10.4803 15.738 10.9462 15.6322 11.3919L17.5781 11.8539ZM19.0885 11.9019L17.1052 10.7569L16.1052 12.4889L18.0885 13.634L19.0885 11.9019ZM17.4545 16.7321L19.4545 13.2679L17.7224 12.2679L15.7224 15.7321L17.4545 16.7321ZM14.1037 15.9522L16.0885 17.0981L17.0885 15.366L15.1037 14.2201L14.1037 15.9522ZM12.0795 17.6686C13.2978 17.306 14.3933 16.6617 15.2909 15.8126L13.9166 14.3597C13.2418 14.998 12.4201 15.4805 11.509 15.7517L12.0795 17.6686ZM12.7943 19V16.7101H10.7943V19H12.7943ZM7.79427 20H11.7943V18H7.79427V20ZM6.79427 16.7101V19H8.79427V16.7101H6.79427ZM4.29746 15.8125C5.19512 16.6617 6.29064 17.306 7.50902 17.6686L8.07952 15.7517C7.16836 15.4805 6.34669 14.9979 5.67188 14.3596L4.29746 15.8125ZM3.5 17.0979L5.48467 15.9521L4.48467 14.22L2.5 15.3659L3.5 17.0979ZM0.133975 13.2678L2.13397 16.7319L3.86603 15.7319L1.86603 12.2678L0.133975 13.2678ZM2.48332 10.7567L0.5 11.9018L1.5 13.6338L3.48332 12.4888L2.48332 10.7567ZM1.79427 10C1.79427 10.637 1.86891 11.2578 2.01035 11.8537L3.95629 11.3918C3.8505 10.9461 3.79427 10.4803 3.79427 10H1.79427ZM2.01039 8.14617C1.86892 8.74213 1.79427 9.363 1.79427 10H3.79427C3.79427 9.51969 3.85051 9.05382 3.95631 8.6081L2.01039 8.14617ZM0.500007 8.09808L2.48335 9.24316L3.48335 7.51111L1.50001 6.36602L0.500007 8.09808ZM2.13398 3.26795L0.133982 6.73205L1.86603 7.73205L3.86603 4.26795L2.13398 3.26795ZM5.48477 4.04782L3.50001 2.90192L2.50001 4.63397L4.48477 5.77987L5.48477 4.04782ZM7.50902 2.33143C6.29069 2.69402 5.19521 3.33827 4.29757 4.18738L5.67196 5.64032C6.34676 5.00201 7.1684 4.5195 8.07952 4.24833L7.50902 2.33143ZM6.79427 1V3.28988H8.79427V1H6.79427ZM11.7943 10C11.7943 11.1046 10.8989 12 9.79431 12V14C12.0035 14 13.7943 12.2091 13.7943 10H11.7943ZM9.79431 8C10.8989 8 11.7943 8.89543 11.7943 10H13.7943C13.7943 7.79086 12.0035 6 9.79431 6V8ZM7.79431 10C7.79431 8.89543 8.68974 8 9.79431 8V6C7.58517 6 5.79431 7.79086 5.79431 10H7.79431ZM9.79431 12C8.68974 12 7.79431 11.1046 7.79431 10H5.79431C5.79431 12.2091 7.58517 14 9.79431 14V12Z" fill="#888ACE"/>
</svg>
