<svg width="18" height="17" viewBox="0 0 18 17" fill="none" xmlns="http://www.w3.org/2000/svg">
<path d="M16.2057 8.5C16.2057 12.6421 12.8018 16 8.60284 16C4.40391 16 1 12.6421 1 8.5C1 4.35786 4.40391 1 8.60284 1C12.8018 1 16.2057 4.35786 16.2057 8.5Z" fill="#888ACE"/>
<path d="M15.2057 8.5C15.2057 12.0771 12.2624 15 8.60284 15V17C13.3412 17 17.2057 13.2072 17.2057 8.5H15.2057ZM8.60284 15C4.94331 15 2 12.0771 2 8.5H0C0 13.2072 3.86451 17 8.60284 17V15ZM2 8.5C2 4.92295 4.94331 2 8.60284 2V0C3.86451 0 0 3.79278 0 8.5H2ZM8.60284 2C12.2624 2 15.2057 4.92295 15.2057 8.5H17.2057C17.2057 3.79278 13.3412 0 8.60284 0V2Z" fill="#888ACE"/>
</svg>
